<?xml version="1.0" encoding="utf-8"?>
<!-- Generator: Adobe Illustrator 24.1.0, SVG Export Plug-In . SVG Version: 6.00 Build 0)  -->
<svg version="1.1" id="Layer_1" xmlns="http://www.w3.org/2000/svg" xmlns:xlink="http://www.w3.org/1999/xlink" x="0px" y="0px"
	 viewBox="0 0 297.6 127.6" style="enable-background:new 0 0 297.6 127.6;" xml:space="preserve">
<style type="text/css">
	.st0{fill:#FFFFFF;}
	.st1{fill:#00AA9E;}
</style>
<g>
	<path class="st0" d="M85,25.5V17c0-9.4-7.6-17-17-17H0v85h68c9.4,0,17-7.6,17-17v-8.5c0-9.4-7.6-17-17-17
		C77.4,42.5,85,34.9,85,25.5z M59.5,61.2c0,3.8-3,6.8-6.8,6.8H34h-8.5V51H34h18.7c3.8,0,6.8,3,6.8,6.8V61.2z M59.5,27.2
		c0,3.8-3,6.8-6.8,6.8h-23h-4.3V17h0v0h27.2c3.8,0,6.8,3,6.8,6.8V27.2z"/>
	<rect x="93.5" y="0" class="st0" width="25.5" height="85"/>
	<polygon class="st0" points="212.6,0 181.8,0 153.1,42.5 153.1,0 127.6,0 127.6,85 153.1,85 153.1,42.5 181.8,85 212.6,85 
		183.9,42.5 	"/>
	<polygon class="st0" points="238.1,68 238.1,51 289.1,51 289.1,34 238.1,34 238.1,17 297.6,17 297.6,0 212.6,0 212.6,85 297.6,85 
		297.6,68 	"/>
	<g>
		<polygon class="st0" points="153.8,120.3 153.8,113.6 173.9,113.6 173.9,106.9 153.8,106.9 153.8,100.2 177.2,100.2 177.2,93.5 
			143.8,93.5 143.8,127 177.2,127 177.2,120.3 		"/>
		<polygon class="st0" points="33.4,93.5 21.7,93.5 20.1,93.5 13.4,93.5 11.7,93.5 0,93.5 0,100.2 11.7,100.2 11.7,127 13.4,127 
			20.1,127 21.7,127 21.7,100.2 33.4,100.2 		"/>
		<path class="st0" d="M63.5,93.5h-5.4l0,0l0,0H46.8v0h-10v0v1.7v1.7v13.4v1.7v1.7V127h10v-13.4h2.3l9,13.4h12.1l-9-13.4h2.4
			c3.7,0,6.7-3,6.7-6.7v-1.7v-1.7v0v-1.7v-1.7C70.2,96.5,67.2,93.5,63.5,93.5z M60.2,104.2c0,1.5-1.2,2.7-2.7,2.7h-7.4h-3.3v-6.7
			h3.3h7.4c1.5,0,2.7,1.2,2.7,2.7V104.2z"/>
		<polygon class="st0" points="128.8,127 118.7,127 107,93.5 115.9,93.5 123.7,116 131.6,93.5 140.5,93.5 		"/>
		<path class="st0" d="M98.2,127h8.9L95.3,93.5h-10L73.6,127h8.9l2.9-8.4h9.9L98.2,127z M87.7,111.9l2.6-7.4l2.6,7.4H87.7z"/>
		<polygon class="st0" points="190.6,120.3 190.6,113.6 190.6,113.6 190.6,106.9 190.6,106.9 190.6,100.2 190.6,100.2 190.6,93.5 
			180.6,93.5 180.6,127 214,127 214,120.3 190.6,120.3 		"/>
		<rect x="217.4" y="120.3" class="st0" width="6.7" height="6.7"/>
		<path class="st0" d="M290.9,93.5h-20.1c-3.7,0-6.7,3-6.7,6.7v20.1c0,3.7,3,6.7,6.7,6.7h20.1c3.7,0,6.7-3,6.7-6.7v-20.1
			C297.6,96.5,294.6,93.5,290.9,93.5z M287.6,116.3c0,2.2-1.8,4-4,4h-4.3v0h-1c-2.2,0-4-1.8-4-4v-12c0-2.2,1.8-4,4-4h4.3v0h1
			c2.2,0,4,1.8,4,4V116.3z"/>
		<path class="st0" d="M250.8,113.6v2.7c0,2.2-1.8,4-4,4h-4.3v0h-1c-2.2,0-4-1.8-4-4v-12c0-2.2,1.8-4,4-4h4.3v0h1c2.2,0,4,1.8,4,4
			v2.7h10v-6.7c0-3.7-3-6.7-6.7-6.7h-20.1c-3.7,0-6.7,3-6.7,6.7v20.1c0,3.7,3,6.7,6.7,6.7h20.1c3.7,0,6.7-3,6.7-6.7v-6.7H250.8z"/>
	</g>
</g>
<g>
	<polygon class="st1" points="212.6,85 181.8,85 153.1,42.5 181.8,0 212.6,0 183.9,42.5 	"/>
</g>
</svg>
